<svg width="80" height="80" viewBox="0 0 80 80" fill="none" xmlns="http://www.w3.org/2000/svg">
<g id="Frame 31">
<g id="mail">
<mask id="mask0_178_23" style="mask-type:alpha" maskUnits="userSpaceOnUse" x="0" y="0" width="80" height="80">
<rect id="Bounding box" width="80" height="80" fill="#D9D9D9"/>
</mask>
<g mask="url(#mask0_178_23)">
<path id="mail_2" d="M8 71.6666C5.8 71.6666 3.91667 70.8914 2.35 69.3411C0.783333 67.7907 0 65.927 0 63.7499V16.2499C0 14.0728 0.783333 12.2091 2.35 10.6588C3.91667 9.10843 5.8 8.33325 8 8.33325H72C74.2 8.33325 76.0833 9.10843 77.65 10.6588C79.2167 12.2091 80 14.0728 80 16.2499V63.7499C80 65.927 79.2167 67.7907 77.65 69.3411C76.0833 70.8914 74.2 71.6666 72 71.6666H8ZM72 24.1666L42.1 42.6718C41.7667 42.8697 41.4167 43.0182 41.05 43.1171C40.6833 43.2161 40.3333 43.2655 40 43.2655C39.6667 43.2655 39.3167 43.2161 38.95 43.1171C38.5833 43.0182 38.2333 42.8697 37.9 42.6718L8 24.1666V63.7499H72V24.1666ZM40 36.0416L72 16.2499H8L40 36.0416ZM8 25.1562V19.3176V19.4166V19.3671V25.1562Z" fill="white"/>
</g>
</g>
</g>
</svg>
