<svg width="80" height="78" viewBox="0 0 80 78" fill="none" xmlns="http://www.w3.org/2000/svg">
<g id="github-mark 1" clip-path="url(#clip0_133_387)">
<path id="Vector" fill-rule="evenodd" clip-rule="evenodd" d="M39.8808 0C17.8278 0 0 17.875 0 39.9888C0 57.6656 11.4229 72.6286 27.2694 77.9244C29.2506 78.3226 29.9763 77.064 29.9763 76.0053C29.9763 75.0783 29.911 71.9006 29.911 68.5896C18.8171 70.9735 16.5069 63.8227 16.5069 63.8227C14.7241 59.1882 12.0824 57.9971 12.0824 57.9971C8.45143 55.5474 12.3469 55.5474 12.3469 55.5474C16.3747 55.8123 18.4882 59.6521 18.4882 59.6521C22.0531 65.7426 27.7976 64.0218 30.1086 62.9623C30.4384 60.3801 31.4955 58.5926 32.618 57.5998C23.7698 56.6727 14.4604 53.2301 14.4604 37.8698C14.4604 33.5002 16.0441 29.9252 18.5535 27.1448C18.1576 26.1519 16.7706 22.0464 18.9502 16.5514C18.9502 16.5514 22.3176 15.4919 29.9102 20.6562C33.1609 19.7809 36.5133 19.3356 39.8808 19.3318C43.2482 19.3318 46.6808 19.7958 49.8506 20.6562C57.4441 15.4919 60.8114 16.5514 60.8114 16.5514C62.991 22.0464 61.6033 26.1519 61.2073 27.1448C63.7829 29.9252 65.3012 33.5002 65.3012 37.8698C65.3012 53.2301 55.9918 56.6061 47.0776 57.5998C48.5306 58.8575 49.7845 61.2406 49.7845 65.0146C49.7845 70.3771 49.7192 74.6809 49.7192 76.0045C49.7192 77.064 50.4457 78.3226 52.4261 77.9253C68.2727 72.6278 79.6955 57.6656 79.6955 39.9888C79.7608 17.875 61.8678 0 39.8808 0Z" fill="white"/>
</g>
<defs>
<clipPath id="clip0_133_387">
<rect width="80" height="78" fill="white"/>
</clipPath>
</defs>
</svg>
