<svg width="64" height="64" viewBox="0 0 64 64" fill="none" xmlns="http://www.w3.org/2000/svg">
<g id="Frame 23">
<path id="Vector" d="M14.2222 7.11111C14.2222 11.0219 11.7324 14.2222 7.11111 14.2222C2.84508 14.2222 0 11.0219 0 7.46635C0 3.55556 2.84508 0 7.11111 0C11.3771 0 14.2222 3.20032 14.2222 7.11111Z" fill="white"/>
<path id="Vector_2" d="M14.2222 17.7778H0V64.0001H14.2222V17.7778Z" fill="white"/>
<path id="Vector_3" d="M48.4862 18.6667C41.0815 18.6667 36.8475 22.9158 35.086 25.7495H34.7337L34.0291 19.7282H21.3335C21.3335 23.6234 21.6858 28.2294 21.6858 33.5399V64.0001H35.7906V38.8535C35.7906 37.4382 35.7906 36.3736 36.1429 35.3121C37.1998 32.8322 38.9645 29.6447 42.843 29.6447C47.7816 29.6447 49.8954 33.8937 49.8954 39.5611V64.0001H64.0002V37.792C64.0002 24.688 57.3001 18.6667 48.483 18.6667H48.4862Z" fill="white"/>
</g>
</svg>
