<svg width="69" height="42" viewBox="0 0 69 42" fill="none" xmlns="http://www.w3.org/2000/svg">
<g clip-path="url(#clip0_18_1803)">
<path d="M8.94383 0H0.00265503V42H8.22172V12.9006L21.1832 31.9189L33.4225 13.8986V0L21.1832 18.1217L8.94383 0Z" fill="white"/>
<path d="M67.0818 6.68965C65.8039 4.58823 64.0189 2.95335 61.743 1.76876C59.4631 0.588235 56.8424 0 53.885 0H38.2866V41.9959H46.5057V7.50101H53.7065C55.7511 7.50101 57.4144 8.10142 58.7167 9.30223C60.0189 10.499 60.6639 12.0568 60.6639 13.9838C60.6639 15.9107 60.0757 17.4726 58.8992 18.6937C57.7146 19.9107 56.2096 20.5233 54.3678 20.5233H51.0412V28.0811H54.5503C57.386 28.0811 59.8891 27.4686 62.0513 26.2515C64.2136 25.0345 65.9134 23.3631 67.1507 21.2414C68.3921 19.1237 69.0128 16.7018 69.0128 13.9838C69.0128 11.2657 68.3718 8.79107 67.0939 6.68965H67.0818Z" fill="white"/>
</g>
<defs>
<clipPath id="clip0_18_1803">
<rect width="69.0033" height="42" fill="white"/>
</clipPath>
</defs>
</svg>
